<?xml version="1.0" encoding="UTF-8" standalone="no"?>
<svg
   xmlns:dc="http://purl.org/dc/elements/1.1/"
   xmlns:cc="http://creativecommons.org/ns#"
   xmlns:rdf="http://www.w3.org/1999/02/22-rdf-syntax-ns#"
   xmlns:svg="http://www.w3.org/2000/svg"
   xmlns="http://www.w3.org/2000/svg"
   xmlns:sodipodi="http://sodipodi.sourceforge.net/DTD/sodipodi-0.dtd"
   xmlns:inkscape="http://www.inkscape.org/namespaces/inkscape"
   viewBox="0 0 100 125"
   version="1.1"
   x="0px"
   y="0px"
   id="svg16"
   sodipodi:docname="alarme.svg"
   inkscape:version="0.92.3 (2405546, 2018-03-11)">
  <metadata
     id="metadata22">
    <rdf:RDF>
      <cc:Work
         rdf:about="">
        <dc:format>image/svg+xml</dc:format>
        <dc:type
           rdf:resource="http://purl.org/dc/dcmitype/StillImage" />
      </cc:Work>
    </rdf:RDF>
  </metadata>
  <defs
     id="defs20" />
  <sodipodi:namedview
     pagecolor="#ffffff"
     bordercolor="#666666"
     borderopacity="1"
     objecttolerance="10"
     gridtolerance="10"
     guidetolerance="10"
     inkscape:pageopacity="0"
     inkscape:pageshadow="2"
     inkscape:window-width="1920"
     inkscape:window-height="1017"
     id="namedview18"
     showgrid="false"
     inkscape:zoom="1.888"
     inkscape:cx="12.923728"
     inkscape:cy="62.5"
     inkscape:window-x="-8"
     inkscape:window-y="-8"
     inkscape:window-maximized="1"
     inkscape:current-layer="svg16" />
  <title
     id="title2">Bell v4.3</title>
  <desc
     id="desc4">Created with Sketch.</desc>
  <g
     id="g10"
     transform="matrix(1.4361914,0,0,1.4312285,-19.161266,-8.9573645)"
     style="fill:none;fill-rule:evenodd;stroke:none;stroke-width:1">
    <g
       id="g8"
       style="fill:#000000;fill-rule:nonzero">
      <path
         d="m 56.966615,86.17305 c -0.494928,4.22317 -4.08569,7.5 -8.441797,7.5 -4.356107,0 -7.946869,-3.27683 -8.441797,-7.5 H 25.527366 c -1.384101,0 -2.502548,-1.115616 -2.502548,-2.49703 v -3.00297 c 0,-3.034538 2.464835,-5.5 5.502087,-5.5 0.272319,0 0.497913,-0.225733 0.497913,-0.501743 V 62.672299 c 0,-8.553402 5.549363,-15.995269 13.5,-18.55904 v -0.939355 c 0,-3.312632 2.689799,-6.000854 6,-6.000854 3.315493,0 6,2.682604 6,6.000854 v 0.939478 c 7.950434,2.564114 13.5,10.007331 13.5,18.558917 v 11.999008 c 0,0.281491 0.220359,0.501743 0.497913,0.501743 3.032557,0 5.502087,2.464668 5.502087,5.5 v 3.00297 c 0,1.375028 -1.123038,2.49703 -2.502548,2.49703 z m -3.032485,0 H 43.115506 c 0.470256,2.560118 2.713242,4.5 5.409312,4.5 2.69607,0 4.939056,-1.939882 5.409312,-4.5 z m 17.090688,-5.5 c 0,-1.377153 -1.125062,-2.5 -2.502087,-2.5 -1.934082,0 -3.497913,-1.563072 -3.497913,-3.501743 V 62.672299 c 0,-7.572837 -5.144148,-14.11952 -12.373775,-15.979697 l -1.126225,-0.289777 v -3.228921 c 0,-1.660919 -1.340885,-3.000854 -3,-3.000854 -1.653741,0 -3,1.34547 -3,3.000854 v 3.228889 l -1.126277,0.289747 c -7.229914,1.859975 -12.373723,8.405134 -12.373723,15.979759 v 11.999008 c 0,1.932452 -1.568327,3.501743 -3.497913,3.501743 -1.380227,0 -2.502087,1.122145 -2.502087,2.5 v 2.5 h 45 z"
         id="path6"
         inkscape:connector-curvature="0" />
    </g>
  </g>
  <path
     style="opacity:1;fill:#ffffff;fill-opacity:1;fill-rule:evenodd;stroke:none;stroke-width:4.74843168;stroke-miterlimit:4;stroke-dasharray:none;stroke-dashoffset:0;stroke-opacity:1"
     d="m 18.370543,107.48007 c 0.368572,-2.74791 1.500024,-3.98588 4.009706,-4.38719 1.151961,-0.18421 2.538239,-0.89889 3.28603,-1.69407 1.278881,-1.35993 1.296453,-1.516816 1.558297,-13.913606 l 0.264831,-12.53817 1.695683,-3.579728 c 2.90742,-6.137803 8.129878,-10.819827 14.33121,-12.84818 l 2.776073,-0.908008 v -2.892912 c 0,-2.491215 0.214982,-3.107894 1.54824,-4.441152 1.958325,-1.958326 3.41977,-1.958326 5.378096,0 1.333258,1.333258 1.54824,1.949937 1.54824,4.441152 v 2.892912 l 2.78072,0.897422 c 1.529397,0.493582 3.737451,1.451491 4.906788,2.128687 3.26749,1.892297 7.537324,6.75607 9.419775,10.730079 l 1.695683,3.579728 0.264831,12.53817 c 0.261843,12.39679 0.279417,12.553676 1.558294,13.913606 0.747797,0.79518 2.134073,1.50986 3.286033,1.69407 2.509682,0.40131 3.641133,1.63928 4.009709,4.38719 l 0.289682,2.15976 H 50.529661 18.080859 Z"
     id="path11"
     inkscape:connector-curvature="0" />
  <path
     style="opacity:1;fill:#ffffff;fill-opacity:1;fill-rule:evenodd;stroke:none;stroke-width:4.74843168;stroke-miterlimit:4;stroke-dasharray:none;stroke-dashoffset:0;stroke-opacity:1"
     d="m 46.989938,124.23643 c -3.844712,-1.20205 -6.987562,-4.46866 -7.977496,-8.29164 l -0.466834,-1.80284 -11.481335,-0.14273 -11.481335,-0.14273 -0.870104,-1.32795 c -1.264803,-1.93033 -0.775129,-8.00876 0.826366,-10.25785 1.345401,-1.88945 3.626854,-3.22408 5.511304,-3.22408 0.711583,0 1.438461,-0.377012 1.615286,-0.837812 0.176824,-0.460795 0.324327,-5.525679 0.327785,-11.255295 0.0068,-11.303698 0.352546,-13.512371 2.957183,-18.892062 2.20187,-4.547801 7.557141,-9.764797 12.321848,-12.003691 3.167421,-1.488343 3.764994,-1.976628 3.783622,-3.091648 0.03668,-2.195583 1.883081,-5.587088 3.777179,-6.937993 2.503602,-1.785615 6.888906,-1.785615 9.392508,0 1.894098,1.350905 3.740499,4.74241 3.777179,6.937993 0.01863,1.11502 0.6162,1.603305 3.783621,3.091648 4.76471,2.238894 10.11998,7.45589 12.321849,12.003691 2.604635,5.379691 2.950361,7.588364 2.957183,18.892062 0.0037,5.729616 0.150958,10.7945 0.327786,11.255295 0.176822,0.4608 0.903702,0.837812 1.615286,0.837812 1.884449,0 4.1659,1.33463 5.511303,3.22408 1.601493,2.24909 2.09117,8.32752 0.826366,10.25785 l -0.870106,1.32795 -11.481334,0.14273 -11.481334,0.14273 -0.466834,1.80284 c -1.016129,3.92413 -4.145222,7.10471 -8.186182,8.32085 -2.930625,0.88199 -3.970474,0.87757 -6.87076,-0.0292 z m 6.196066,-3.66819 c 1.711269,-0.37629 4.581265,-3.3544 5.044522,-5.23455 l 0.358889,-1.45657 h -8.059754 -8.059754 l 0.353603,1.45657 c 0.735653,3.03031 5.38842,6.24096 8.235812,5.68313 0.43697,-0.0856 1.393977,-0.28747 2.126682,-0.44858 z m 29.750887,-13.31188 c -0.177114,-2.81003 -1.421022,-4.50212 -3.309629,-4.50212 -1.711664,0 -3.729704,-1.2199 -4.508088,-2.72512 C 74.541944,98.912871 74.361361,96.102789 74.351456,88.082447 74.344338,82.314538 74.097389,76.549418 73.80268,75.271069 71.997452,67.440541 65.941006,60.786677 58.255818,58.190637 l -2.694377,-0.910154 -0.314746,-2.83235 c -0.173111,-1.557793 -0.60471,-3.374154 -0.959111,-4.036358 -1.365018,-2.55056 -5.697932,-2.726687 -7.290354,-0.296344 -0.466528,0.712011 -0.994733,2.632031 -1.173791,4.266711 -0.323283,2.951379 -0.341152,2.976739 -2.557529,3.629672 -7.104107,2.092834 -12.958452,7.943953 -15.470467,15.461944 -0.971254,2.90678 -1.100528,4.568153 -1.100528,14.14351 0,7.283854 -0.207973,11.306286 -0.632778,12.238633 -0.678411,1.488949 -2.904988,2.898339 -4.578851,2.898339 -1.823988,0 -3.141285,1.68087 -3.408183,4.34884 -0.137279,1.37226 -0.119219,2.6254 0.04013,2.78475 0.159351,0.15936 14.84697,0.22833 32.639154,0.15328 l 32.349424,-0.13645 z"
     id="path13"
     inkscape:connector-curvature="0" />
  <path
     style="opacity:1;fill:#ffffff;fill-opacity:1;fill-rule:evenodd;stroke:none;stroke-width:4.74843168;stroke-miterlimit:4;stroke-dasharray:none;stroke-dashoffset:0;stroke-opacity:1"
     d=""
     id="path14"
     inkscape:connector-curvature="0" />
  <path
     style="opacity:1;fill:#ffffff;fill-opacity:1;fill-rule:evenodd;stroke:none;stroke-width:4.74843168;stroke-miterlimit:4;stroke-dasharray:none;stroke-dashoffset:0;stroke-opacity:1"
     d="m 48.474206,120.22685 c -1.829844,-0.56231 -3.85664,-2.36938 -4.894066,-4.3635 l -0.757768,-1.45657 h 7.707289 7.707288 l -0.78907,1.52589 c -0.868169,1.67886 -3.72869,4.29622 -4.707797,4.30761 -0.341791,0.004 -1.098133,0.10808 -1.68076,0.23134 -0.582627,0.12326 -1.745929,0.0131 -2.585116,-0.24477 z"
     id="path16"
     inkscape:connector-curvature="0" />
  <path
     style="opacity:1;fill:#ffffff;fill-opacity:1;fill-rule:evenodd;stroke:none;stroke-width:4.74843168;stroke-miterlimit:4;stroke-dasharray:none;stroke-dashoffset:0;stroke-opacity:1"
     d="m 46.251207,123.71905 c -3.486553,-1.51817 -5.906385,-4.46828 -7.312561,-8.91502 -0.267194,-0.84495 -1.300296,-0.92691 -11.683845,-0.92691 H 15.864068 l -0.808094,-1.56268 c -1.575094,-3.0459 -0.740411,-8.42411 1.683597,-10.84812 0.780275,-0.78027 2.429638,-1.689069 3.665251,-2.019545 1.520249,-0.406605 2.34134,-0.953713 2.5397,-1.692251 0.161223,-0.600264 0.297767,-5.143295 0.303432,-10.095625 0.0126,-11.00857 0.508035,-14.274871 2.901867,-19.131151 2.231006,-4.525963 7.31244,-9.574064 12.46879,-12.386998 3.120632,-1.702393 3.44062,-2.040881 3.840398,-4.062418 0.27377,-1.384359 1.193769,-3.059054 2.471432,-4.4988 2.008436,-2.263224 2.081023,-2.293515 5.495995,-2.293515 2.960376,0 3.665552,0.19143 4.877827,1.324153 1.655792,1.547134 2.947668,3.852623 3.413,6.090858 0.265676,1.277892 0.995282,1.951498 3.729015,3.442796 5.151126,2.810027 10.233017,7.859587 12.463224,12.383924 2.393829,4.85628 2.889274,8.122581 2.901864,19.131151 0.0057,4.95233 0.142209,9.495361 0.303432,10.095625 0.198364,0.738538 1.01945,1.285646 2.539698,1.692251 1.235615,0.330476 2.884979,1.239275 3.665255,2.019545 2.424009,2.42401 3.258691,7.80222 1.683596,10.84812 l -0.808093,1.56268 H 73.804523 c -10.383551,0 -11.416654,0.082 -11.683847,0.92691 -2.004286,6.33815 -6.256903,9.70529 -12.182128,9.64558 -1.131456,-0.0114 -2.790759,-0.34016 -3.687341,-0.73056 z m 8.708663,-3.87371 c 1.613044,-1.19453 3.779536,-4.2051 3.779536,-5.25206 0,-0.57097 -1.664374,-0.71616 -8.209745,-0.71616 -5.378995,0 -8.209746,0.1917 -8.209746,0.55596 0,0.30578 0.333119,1.20015 0.740265,1.98748 2.306559,4.46039 8.207809,6.1588 11.89969,3.42478 z m 28.143943,-11.8208 c 0,-3.18225 -1.178707,-5.07544 -3.422012,-5.49629 -1.028729,-0.19299 -2.526817,-0.9151 -3.329079,-1.60469 L 74.894067,99.669767 74.598204,89.162214 74.302341,78.654661 74.200958,88.825714 c -0.06666,6.687531 0.105159,10.62436 0.501669,11.494606 0.640588,1.40594 3.342569,2.96358 5.140821,2.96358 1.496933,0 2.730704,1.96771 2.730704,4.35514 v 2.00079 H 50.529661 18.485169 v -2.00079 c 0,-2.38743 1.233772,-4.35514 2.730707,-4.35514 1.882539,0 4.566367,-1.61055 5.137035,-3.08271 0.302621,-0.780676 0.62342,-6.68279 0.712887,-13.11581 l 0.162668,-11.696399 2.25152,-4.543757 c 3.212443,-6.482979 8.020986,-10.571688 14.826158,-12.606697 l 2.251059,-0.673153 v -3.118203 c 0,-2.60447 0.214192,-3.332395 1.300077,-4.41828 1.656925,-1.656925 3.687837,-1.656925 5.344762,0 1.085885,1.085885 1.300076,1.81381 1.300076,4.41828 v 3.118203 l 2.25106,0.664601 c 3.814618,1.126227 8.217232,3.76178 10.677304,6.391793 2.781594,2.97375 5.563675,8.241594 6.135392,11.617302 l 0.409104,2.415591 0.0623,-2.133587 c 0.04216,-1.443984 -0.534311,-3.378508 -1.783586,-5.985299 -2.48625,-5.187937 -6.465916,-9.129042 -11.62561,-11.512967 -2.16584,-1.00068 -4.161073,-1.819418 -4.433851,-1.819418 -0.272779,0 -0.660649,-1.455646 -0.861934,-3.234769 -0.269889,-2.385503 -0.698706,-3.567504 -1.633321,-4.502119 -1.481308,-1.481308 -4.185017,-1.68929 -5.944012,-0.457242 -1.212407,0.849203 -2.249114,3.716741 -2.254128,6.234928 -0.0024,1.216541 -0.360485,1.62898 -1.989183,2.291268 -8.406081,3.418221 -12.661193,7.509271 -15.57277,14.97234 -1.027393,2.633454 -1.193624,4.336057 -1.47125,15.069112 l -0.31299,12.100211 -1.453351,1.250121 c -0.799343,0.68756 -2.295039,1.40802 -3.32377,1.60101 -2.243304,0.42085 -3.422013,2.31404 -3.422013,5.49629 v 2.14495 h 32.574153 32.574152 z"
     id="path18"
     inkscape:connector-curvature="0" />
</svg>
