<?xml version="1.0" encoding="UTF-8" standalone="no"?>
<svg
   xmlns:dc="http://purl.org/dc/elements/1.1/"
   xmlns:cc="http://creativecommons.org/ns#"
   xmlns:rdf="http://www.w3.org/1999/02/22-rdf-syntax-ns#"
   xmlns:svg="http://www.w3.org/2000/svg"
   xmlns="http://www.w3.org/2000/svg"
   xmlns:sodipodi="http://sodipodi.sourceforge.net/DTD/sodipodi-0.dtd"
   xmlns:inkscape="http://www.inkscape.org/namespaces/inkscape"
   viewBox="0 0 281.23 285.05"
   x="0px"
   y="0px"
   version="1.1"
   id="svg14"
   sodipodi:docname="bulle.svg"
   inkscape:version="0.92.3 (2405546, 2018-03-11)">
  <metadata
     id="metadata20">
    <rdf:RDF>
      <cc:Work
         rdf:about="">
        <dc:format>image/svg+xml</dc:format>
        <dc:type
           rdf:resource="http://purl.org/dc/dcmitype/StillImage" />
      </cc:Work>
    </rdf:RDF>
  </metadata>
  <defs
     id="defs18" />
  <sodipodi:namedview
     pagecolor="#ffffff"
     bordercolor="#666666"
     borderopacity="1"
     objecttolerance="10"
     gridtolerance="10"
     guidetolerance="10"
     inkscape:pageopacity="0"
     inkscape:pageshadow="2"
     inkscape:window-width="1920"
     inkscape:window-height="1001"
     id="namedview16"
     showgrid="false"
     inkscape:zoom="0.82792496"
     inkscape:cx="119.47782"
     inkscape:cy="142.52499"
     inkscape:window-x="-9"
     inkscape:window-y="-9"
     inkscape:window-maximized="1"
     inkscape:current-layer="svg14" />
  <title
     id="title2">speaking</title>
  <g
     data-name="Layer 2"
     id="g8">
    <g
       data-name="Layer 1"
       id="g6">
      <path
         d="M141.54,202.84c-10.89-1.14-21.95-2.5-33-3.32a18.48,18.48,0,0,0-9.81,1.75c-19.22,10.7-38.95,20.19-60.25,26a22,22,0,0,1-11.18.16c-11.19-3.19-15-15.52-8.68-25.88,5.5-9.08,10.53-18.45,15.85-27.65,1.87-3.25,1.33-5.28-1.72-7.84C17.12,153,5.86,136.94,1.7,116.75-3.65,90.73,3.86,68,21,48.3,41.86,24.2,69.24,11.14,99.79,4.55c38.2-8.23,75.73-5.45,112,9.59,19.67,8.15,37,19.78,50.47,36.44,27.26,33.69,24.88,76.26-5.69,107.5C234,181.21,205.79,193.37,174.53,199,163.76,201,152.76,201.58,141.54,202.84ZM31.23,213a32.54,32.54,0,0,0,4.81-.63c21-5.78,40.35-15.34,59-26.48a14.19,14.19,0,0,1,10.81-2.05,177.62,177.62,0,0,0,73.36-.7c25.83-5.76,49.2-16.34,67.73-35.88,23.32-24.6,25.88-56.42,6.73-83.86a90.94,90.94,0,0,0-30.36-27C183,13.56,140.16,9.91,95.79,20.83,72.26,26.62,51.13,37.26,34.45,55.3,19,72,11.73,91.62,16.74,114.46c4.13,18.81,16,32.58,30.74,44.15,6.41,5,7.28,7.19,3.79,14.45C45,186.21,38.21,199.14,31.23,213Z"
         id="path4" />
    </g>
  </g>
</svg>
