<?xml version="1.0" encoding="UTF-8" standalone="no"?>
<svg
   xmlns:dc="http://purl.org/dc/elements/1.1/"
   xmlns:cc="http://creativecommons.org/ns#"
   xmlns:rdf="http://www.w3.org/1999/02/22-rdf-syntax-ns#"
   xmlns:svg="http://www.w3.org/2000/svg"
   xmlns="http://www.w3.org/2000/svg"
   xmlns:sodipodi="http://sodipodi.sourceforge.net/DTD/sodipodi-0.dtd"
   xmlns:inkscape="http://www.inkscape.org/namespaces/inkscape"
   viewBox="0 0 78 97.5"
   version="1.1"
   x="0px"
   y="0px"
   id="svg16"
   sodipodi:docname="moins.svg"
   inkscape:version="0.92.3 (2405546, 2018-03-11)">
  <metadata
     id="metadata22">
    <rdf:RDF>
      <cc:Work
         rdf:about="">
        <dc:format>image/svg+xml</dc:format>
        <dc:type
           rdf:resource="http://purl.org/dc/dcmitype/StillImage" />
      </cc:Work>
    </rdf:RDF>
  </metadata>
  <defs
     id="defs20" />
  <sodipodi:namedview
     pagecolor="#ffffff"
     bordercolor="#666666"
     borderopacity="1"
     objecttolerance="10"
     gridtolerance="10"
     guidetolerance="10"
     inkscape:pageopacity="0"
     inkscape:pageshadow="2"
     inkscape:window-width="640"
     inkscape:window-height="480"
     id="namedview18"
     showgrid="false"
     inkscape:zoom="2.4205128"
     inkscape:cx="31.770127"
     inkscape:cy="48.75"
     inkscape:window-x="0"
     inkscape:window-y="0"
     inkscape:window-maximized="0"
     inkscape:current-layer="g10" />
  <title
     id="title2">minus</title>
  <desc
     id="desc4">Created with Sketch.</desc>
  <g
     stroke="none"
     stroke-width="1"
     fill="none"
     fill-rule="evenodd"
     id="g10">
    <g
       transform="matrix(0.96822034,0,0,0.99470336,-229.19703,-224.1769)"
       id="g8"
       style="fill:#000000">
      <path
         d="m 238,276 c 0,-21.53911 17.45616,-39 39,-39 21.5391,0 39,17.45616 39,39 0,21.5391 -17.45616,39 -39,39 -21.53911,0 -39,-17.45616 -39,-39 z m 20,-0.7273 C 258,274.01752 259.01641,273 260.26327,273 h 33.47346 C 294.9867,273 296,274.01786 296,275.2727 v 2.4546 C 296,278.98248 294.98359,280 293.73673,280 H 260.26327 C 259.0133,280 258,278.98214 258,277.7273 Z"
         id="path6"
         inkscape:connector-curvature="0" />
    </g>
  </g>
</svg>
