<?xml version="1.0" encoding="UTF-8" standalone="no"?>
<svg
   xmlns:dc="http://purl.org/dc/elements/1.1/"
   xmlns:cc="http://creativecommons.org/ns#"
   xmlns:rdf="http://www.w3.org/1999/02/22-rdf-syntax-ns#"
   xmlns:svg="http://www.w3.org/2000/svg"
   xmlns="http://www.w3.org/2000/svg"
   xmlns:sodipodi="http://sodipodi.sourceforge.net/DTD/sodipodi-0.dtd"
   xmlns:inkscape="http://www.inkscape.org/namespaces/inkscape"
   version="1.1"
   x="0px"
   y="0px"
   viewBox="0 0 100 125"
   style="enable-background:new 0 0 100 100;"
   xml:space="preserve"
   id="svg14"
   sodipodi:docname="notif.svg"
   inkscape:version="0.92.3 (2405546, 2018-03-11)"><metadata
     id="metadata20"><rdf:RDF><cc:Work
         rdf:about=""><dc:format>image/svg+xml</dc:format><dc:type
           rdf:resource="http://purl.org/dc/dcmitype/StillImage" /></cc:Work></rdf:RDF></metadata><defs
     id="defs18" /><sodipodi:namedview
     pagecolor="#ffffff"
     bordercolor="#666666"
     borderopacity="1"
     objecttolerance="10"
     gridtolerance="10"
     guidetolerance="10"
     inkscape:pageopacity="0"
     inkscape:pageshadow="2"
     inkscape:window-width="1920"
     inkscape:window-height="1017"
     id="namedview16"
     showgrid="false"
     inkscape:zoom="1.888"
     inkscape:cx="40.730932"
     inkscape:cy="57.997881"
     inkscape:window-x="-8"
     inkscape:window-y="-8"
     inkscape:window-maximized="1"
     inkscape:current-layer="svg14" /><g
     id="g8"
     transform="matrix(1.1255468,0,0,1.1672614,-1.918337,11.76405)"><path
       d="m 42,88 c 5.1,0 9.2,-4 9.2,-9 H 32.8 c 0,5 4.1,9 9.2,9 z"
       id="path2"
       inkscape:connector-curvature="0" /><path
       d="m 68.5,61.1 c -0.6,-0.6 -1.1,-1.3 -1.5,-2 0,0 0,-0.1 0,-0.1 0,-0.5 -0.2,-1 -0.5,-1.3 -0.1,-0.5 -0.2,-1.1 -0.2,-1.7 0,0 0,-2.2 0,-5.4 C 59.1,47.7 54,40.7 54,32.5 54,29.6 54.7,26.8 55.8,24.3 54.9,23.6 54,23 53,22.5 52.7,16.7 47.9,12 42,12 36.1,12 31.3,16.7 31,22.5 22.5,27 17.7,36.6 17.7,45.2 c 0,5.9 0,10.8 0,10.8 0,1.9 -0.8,3.8 -2.2,5.1 l -2.2,2 c -2.9,2.6 -3,7.2 -0.2,9.9 v 0 c 1.3,1.3 3,2 4.8,2 h 19.5 9.2 19.5 c 1.8,0 3.5,-0.7 4.8,-2 v 0 c 2.7,-2.8 2.6,-7.3 -0.2,-9.9 z M 42,16 c 3.1,0 5.7,2 6.6,4.8 -1.9,-0.5 -3.9,-0.8 -6,-0.8 h -1.3 c -2.1,0 -4.1,0.3 -6,0.8 C 36.3,18 38.9,16 42,16 Z"
       id="path4"
       inkscape:connector-curvature="0" /><circle
       cx="72.5"
       cy="33.5"
       r="14.5"
       id="circle6" /></g><ellipse
     style="fill:#ff0000;fill-rule:evenodd"
     id="path46"
     cx="76.271187"
     cy="47.934322"
     rx="3.7076271"
     ry="1.8538135" /><ellipse
     style="fill:#ff0000;fill-rule:evenodd;stroke-width:1.37285364"
     id="path48"
     cx="78.654663"
     cy="51.112289"
     rx="18.802967"
     ry="19.332628" /><path
     style="opacity:1;fill:#ffffff;fill-opacity:1;fill-rule:evenodd;stroke:none;stroke-width:4.74843168;stroke-miterlimit:4;stroke-dasharray:none;stroke-dashoffset:0;stroke-opacity:1"
     d="M 14.913257,98.122532 C 9.9113449,95.65669 9.7048916,87.529465 14.563299,84.346112 c 0.6902,-0.452235 1.791598,-1.690625 2.44755,-2.751981 1.104266,-1.786737 1.217027,-2.754057 1.521745,-13.054304 0.237338,-8.022605 0.555165,-11.723138 1.139823,-13.271205 2.551398,-6.75563 6.638084,-12.417197 11.257002,-15.595096 1.785935,-1.228756 2.309029,-1.954608 2.565795,-3.560339 0.493342,-3.085188 3.084709,-6.72994 6.002881,-8.443038 2.059839,-1.209217 3.174876,-1.496785 5.734956,-1.479047 5.720258,0.03964 10.120687,3.53187 11.75018,9.325087 0.585185,2.080465 1.224533,3.199501 2.093791,3.664713 1.466944,0.785085 1.488449,0.995545 0.451143,4.41493 -2.921631,9.630889 1.837998,21.230066 10.81568,26.357717 l 2.158591,1.232892 0.0042,3.805561 c 0.0053,4.876737 0.50751,6.109094 3.969115,9.73822 3.176451,3.330175 3.878851,5.407972 2.969635,8.784556 -0.56963,2.115434 -1.970964,3.776641 -4.119132,4.883019 -0.816059,0.420296 -9.632945,0.592293 -29.925847,0.583787 C 20.121081,98.97099 16.423116,98.866785 14.913416,98.122532 Z M 45.501378,35.446958 c 2.186775,-0.0069 4.74901,0.209073 5.693856,0.480052 2.258355,0.647688 2.293789,-0.329589 0.102443,-2.825393 -3.724888,-4.242414 -10.443448,-3.574178 -12.958211,1.288837 -1.062284,2.054232 -1.061327,2.055453 1.199729,1.530386 1.092426,-0.253685 3.775408,-0.466932 5.962183,-0.473882 z"
     id="path52"
     inkscape:connector-curvature="0" /><path
     style="opacity:1;fill:#ffffff;fill-opacity:1;fill-rule:evenodd;stroke:none;stroke-width:4.74843168;stroke-miterlimit:4;stroke-dasharray:none;stroke-dashoffset:0;stroke-opacity:1"
     d="m 42.127787,113.57796 c -3.557236,-1.26812 -6.693465,-5.11556 -6.693465,-8.21137 0,-1.04445 0.299785,-1.07634 10.120979,-1.07634 H 55.67628 l -0.363095,1.45657 c -1.029347,4.12927 -3.354589,6.74561 -7.113621,8.00418 -2.293991,0.76806 -3.530736,0.73281 -6.071777,-0.17304 z"
     id="path54"
     inkscape:connector-curvature="0" /></svg>