<?xml version="1.0" encoding="UTF-8" standalone="no"?>
<svg
   xmlns:dc="http://purl.org/dc/elements/1.1/"
   xmlns:cc="http://creativecommons.org/ns#"
   xmlns:rdf="http://www.w3.org/1999/02/22-rdf-syntax-ns#"
   xmlns:svg="http://www.w3.org/2000/svg"
   xmlns="http://www.w3.org/2000/svg"
   xmlns:sodipodi="http://sodipodi.sourceforge.net/DTD/sodipodi-0.dtd"
   xmlns:inkscape="http://www.inkscape.org/namespaces/inkscape"
   version="1.1"
   x="0px"
   y="0px"
   viewBox="0 0 1024 1280"
   style="enable-background:new 0 0 1024 1024;"
   xml:space="preserve"
   id="svg36"
   sodipodi:docname="partage.svg"
   inkscape:version="0.92.3 (2405546, 2018-03-11)"><metadata
   id="metadata42"><rdf:RDF><cc:Work
       rdf:about=""><dc:format>image/svg+xml</dc:format><dc:type
         rdf:resource="http://purl.org/dc/dcmitype/StillImage" /></cc:Work></rdf:RDF></metadata><defs
   id="defs40" /><sodipodi:namedview
   pagecolor="#ffffff"
   bordercolor="#666666"
   borderopacity="1"
   objecttolerance="10"
   gridtolerance="10"
   guidetolerance="10"
   inkscape:pageopacity="0"
   inkscape:pageshadow="2"
   inkscape:window-width="604"
   inkscape:window-height="472"
   id="namedview38"
   showgrid="false"
   inkscape:zoom="0.184375"
   inkscape:cx="322.1695"
   inkscape:cy="640"
   inkscape:window-x="160"
   inkscape:window-y="160"
   inkscape:window-maximized="0"
   inkscape:current-layer="svg36" />
<g
   id="g41"
   transform="translate(27.118644,151.86441)"><g
     id="g8"><path
       id="path2"
       d="m 369.5,512 c 0,25.5 -6.8,49.4 -18.8,69.9 -24.2,41.6 -69.2,69.6 -120.8,69.6 C 152.8,651.5 90.4,589 90.4,512 c 0,-77.1 62.5,-139.5 139.5,-139.5 50.9,0 95.4,27.3 119.8,68 12.6,20.8 19.8,45.3 19.8,71.5 z"
       inkscape:connector-curvature="0" /><g
       id="g6"><path
         id="path4"
         d="m 329.5,512 c 0,6.4 -0.5,12.8 -1.3,19.2 0.5,-3.5 1,-7.1 1.4,-10.6 -1.7,11.8 -4.8,23.3 -9.3,34.3 1.3,-3.2 2.7,-6.4 4,-9.6 -4.8,11.4 -11,22.1 -18.6,31.9 2.1,-2.7 4.2,-5.4 6.3,-8.1 -7.4,9.4 -15.9,17.9 -25.3,25.2 2.7,-2.1 5.4,-4.2 8.1,-6.3 -9.6,7.3 -20,13.4 -31.1,18.1 3.2,-1.3 6.4,-2.7 9.6,-4 -11.4,4.7 -23.3,7.9 -35.6,9.6 3.5,-0.5 7.1,-1 10.6,-1.4 -12.5,1.6 -25.1,1.5 -37.6,-0.2 3.5,0.5 7.1,1 10.6,1.4 -12,-1.7 -23.7,-4.9 -34.9,-9.6 3.2,1.3 6.4,2.7 9.6,4 -10.9,-4.7 -21.2,-10.6 -30.6,-17.8 2.7,2.1 5.4,4.2 8.1,6.3 -9.7,-7.5 -18.3,-16.1 -25.8,-25.8 2.1,2.7 4.2,5.4 6.3,8.1 -7.2,-9.5 -13.2,-19.7 -17.8,-30.6 1.3,3.2 2.7,6.4 4,9.6 -4.7,-11.2 -7.9,-22.9 -9.6,-34.9 0.5,3.5 1,7.1 1.4,10.6 -1.7,-12.9 -1.7,-25.9 0,-38.8 -0.5,3.5 -1,7.1 -1.4,10.6 1.7,-12 4.9,-23.7 9.6,-34.9 -1.3,3.2 -2.7,6.4 -4,9.6 4.7,-10.9 10.7,-21.2 17.8,-30.6 -2.1,2.7 -4.2,5.4 -6.3,8.1 7.5,-9.7 16.1,-18.3 25.8,-25.8 -2.7,2.1 -5.4,4.2 -8.1,6.3 9.5,-7.2 19.7,-13.2 30.6,-17.8 -3.2,1.3 -6.4,2.7 -9.6,4 11.2,-4.7 22.9,-7.9 34.9,-9.6 -3.5,0.5 -7.1,1 -10.6,1.4 12.6,-1.7 25.2,-1.7 37.8,-0.1 -3.5,-0.5 -7.1,-1 -10.6,-1.4 12.3,1.7 24.3,4.9 35.8,9.7 -3.2,-1.3 -6.4,-2.7 -9.6,-4 11.2,4.8 21.6,10.9 31.3,18.3 -2.7,-2.1 -5.4,-4.2 -8.1,-6.3 9.5,7.5 18,16 25.4,25.6 -2.1,-2.7 -4.2,-5.4 -6.3,-8.1 7.3,9.6 13.3,20 18,31.1 -1.3,-3.2 -2.7,-6.4 -4,-9.6 4.5,11.1 7.7,22.6 9.4,34.4 -0.5,-3.5 -1,-7.1 -1.4,-10.6 0.7,6.2 1.1,12.6 1.1,19.1 0.1,10.3 4.4,21 11.7,28.3 6.9,6.9 18.3,12.2 28.3,11.7 21.6,-1 40.1,-17.6 40,-40 -0.1,-20.6 -3.4,-41.9 -10.9,-61.2 -8.2,-21.1 -18.7,-39 -33.1,-56.3 -22.9,-27.5 -56.4,-47.8 -91,-56.4 -34.1,-8.5 -72.2,-7.6 -105.1,5.1 -15.7,6 -30.5,13.1 -44,23.2 -7.8,5.8 -15.5,11.8 -22.4,18.7 -7,7 -13.1,14.9 -19.1,22.9 -41.2,55 -43.5,133.5 -10,192.7 16.1,28.5 40.9,53.1 69.7,68.7 30.2,16.3 65.8,24.8 100.2,21.5 10.9,-1.1 22,-2.6 32.7,-5.4 10.2,-2.7 19.9,-6.8 29.6,-11 16.3,-7.1 31.1,-17.7 44.4,-29.4 28,-24.6 48.7,-60.5 55.4,-97.2 2.1,-11.8 3.6,-23.8 3.7,-35.8 0.1,-20.9 -18.5,-41 -40,-40 -21.8,0.9 -39.9,17.5 -40.1,39.9 z"
         inkscape:connector-curvature="0" /></g></g><g
     id="g16"><path
       id="path10"
       d="M 933.5,189.2 C 933.5,266.3 871,329 794,329 h -0.1 c -52.5,-1 -98.3,-29.4 -122,-72.3 -11.1,-20 -17.4,-43.1 -17.4,-67.6 C 654.5,112 717,49.6 794,49.6 c 77.1,0 139.5,62.6 139.5,139.6 z"
       inkscape:connector-curvature="0" /><g
       id="g14"><path
         id="path12"
         d="m 893.5,189 c 0,6.5 -0.5,12.9 -1.3,19.4 0.5,-3.5 1,-7.1 1.4,-10.6 -1.7,12 -4.9,23.7 -9.6,34.9 1.3,-3.2 2.7,-6.4 4,-9.6 -4.7,10.9 -10.6,21.2 -17.8,30.6 2.1,-2.7 4.2,-5.4 6.3,-8.1 -7.5,9.7 -16.1,18.3 -25.8,25.8 2.7,-2.1 5.4,-4.2 8.1,-6.3 -9.5,7.2 -19.7,13.2 -30.6,17.8 3.2,-1.3 6.4,-2.7 9.6,-4 -11.2,4.7 -22.9,7.9 -34.9,9.6 3.5,-0.5 7.1,-1 10.6,-1.4 -12.6,1.7 -25.2,1.7 -37.8,0.1 3.5,0.5 7.1,1 10.6,1.4 -12.2,-1.7 -24.1,-4.9 -35.5,-9.6 3.2,1.3 6.4,2.7 9.6,4 -11.1,-4.7 -21.5,-10.8 -31.1,-18.1 2.7,2.1 5.4,4.2 8.1,6.3 -9.5,-7.4 -17.9,-15.8 -25.3,-25.2 2.1,2.7 4.2,5.4 6.3,8.1 -7.5,-9.7 -13.6,-20.3 -18.5,-31.6 1.3,3.2 2.7,6.4 4,9.6 -4.6,-11.1 -7.7,-22.6 -9.5,-34.5 0.5,3.5 1,7.1 1.4,10.6 -1.7,-12.9 -1.7,-25.9 0,-38.7 -0.5,3.5 -1,7.1 -1.4,10.6 1.7,-12 4.9,-23.7 9.6,-34.9 -1.3,3.2 -2.7,6.4 -4,9.6 4.7,-10.9 10.7,-21.2 17.8,-30.6 -2.1,2.7 -4.2,5.4 -6.3,8.1 7.5,-9.7 16.1,-18.3 25.8,-25.8 -2.7,2.1 -5.4,4.2 -8.1,6.3 9.5,-7.2 19.7,-13.2 30.6,-17.8 -3.2,1.3 -6.4,2.7 -9.6,4 11.2,-4.7 22.9,-7.9 34.9,-9.6 -3.5,0.5 -7.1,1 -10.6,1.4 12.9,-1.7 25.9,-1.7 38.8,0 -3.5,-0.5 -7.1,-1 -10.6,-1.4 12,1.7 23.7,4.9 34.9,9.6 -3.2,-1.3 -6.4,-2.7 -9.6,-4 10.9,4.7 21.2,10.7 30.6,17.8 -2.7,-2.1 -5.4,-4.2 -8.1,-6.3 9.7,7.5 18.3,16.1 25.8,25.8 -2.1,-2.7 -4.2,-5.4 -6.3,-8.1 7.2,9.5 13.2,19.7 17.8,30.6 -1.3,-3.2 -2.7,-6.4 -4,-9.6 4.7,11.2 7.9,22.9 9.6,34.9 -0.5,-3.5 -1,-7.1 -1.4,-10.6 1.1,6.6 1.5,13 1.5,19.5 0.1,10.3 4.4,21 11.7,28.3 6.9,6.9 18.3,12.2 28.3,11.7 21.6,-1 40.1,-17.6 40,-40 -0.2,-34.8 -10.2,-70.5 -30,-99.3 C 933.8,75.6 922.7,62.3 909.3,51.6 901.5,45.4 893.6,39.3 885,34.2 876.3,29.1 867.1,25.1 857.7,21.3 824.9,8 787.6,6.6 753.3,14.2 c -33.4,7.3 -65.5,25.9 -88.9,50.7 -23.3,24.6 -40.8,56.5 -46.5,90.1 -1.7,10.3 -3.2,20.8 -3.4,31.3 -0.2,12.1 1.3,24.3 3.3,36.2 3.4,20.5 11.4,40.9 22.1,58.6 9.4,15.7 21.4,30.5 35.3,42.4 16.7,14.3 34.1,24.6 54.3,32.9 33.8,13.8 72.5,15.4 107.9,6.9 33,-7.9 64.7,-26.5 87.6,-51.5 23.2,-25.2 40.4,-57.2 45.6,-91.3 1.6,-10.4 2.9,-20.8 3,-31.4 0.1,-20.9 -18.5,-41 -40,-40 -21.8,0.9 -40,17.5 -40.1,39.9 z"
         inkscape:connector-curvature="0" /></g></g><g
     id="g24"><path
       id="path18"
       d="m 933.5,834.8 c 0,77.1 -62.5,139.6 -139.5,139.6 -77.1,0 -139.5,-62.4 -139.5,-139.5 0,-25.2 6.7,-49 18.3,-69.4 24,-42 69.2,-69.6 121.1,-70.6 h 0.1 c 77.1,0.1 139.5,62.8 139.5,139.9 z"
       inkscape:connector-curvature="0" /><g
       id="g22"><path
         id="path20"
         d="m 893.5,835 c 0,6.5 -0.5,12.9 -1.3,19.4 0.5,-3.5 1,-7.1 1.4,-10.6 -1.7,12 -4.9,23.7 -9.6,34.9 1.3,-3.2 2.7,-6.4 4,-9.6 -4.7,10.9 -10.6,21.2 -17.8,30.6 2.1,-2.7 4.2,-5.4 6.3,-8.1 -7.5,9.7 -16.1,18.3 -25.8,25.8 2.7,-2.1 5.4,-4.2 8.1,-6.3 -9.5,7.2 -19.7,13.2 -30.6,17.8 3.2,-1.3 6.4,-2.7 9.6,-4 -11.2,4.7 -22.9,7.9 -34.9,9.6 3.5,-0.5 7.1,-1 10.6,-1.4 -12.9,1.7 -25.9,1.7 -38.8,0 3.5,0.5 7.1,1 10.6,1.4 -12,-1.7 -23.7,-4.9 -34.9,-9.6 3.2,1.3 6.4,2.7 9.6,4 -10.9,-4.7 -21.2,-10.6 -30.6,-17.8 2.7,2.1 5.4,4.2 8.1,6.3 -9.7,-7.5 -18.3,-16.1 -25.8,-25.8 2.1,2.7 4.2,5.4 6.3,8.1 -7.2,-9.5 -13.2,-19.7 -17.8,-30.6 1.3,3.2 2.7,6.4 4,9.6 -4.7,-11.2 -7.9,-22.9 -9.6,-34.9 0.5,3.5 1,7.1 1.4,10.6 -1.7,-12.9 -1.7,-25.9 0,-38.8 -0.5,3.5 -1,7.1 -1.4,10.6 1.7,-11.9 4.9,-23.5 9.5,-34.6 -1.3,3.2 -2.7,6.4 -4,9.6 4.9,-11.4 11.1,-22 18.6,-31.7 -2.1,2.7 -4.2,5.4 -6.3,8.1 7.4,-9.4 15.9,-17.8 25.3,-25.1 -2.7,2.1 -5.4,4.2 -8.1,6.3 9.6,-7.3 20,-13.3 31,-18 -3.2,1.3 -6.4,2.7 -9.6,4 11.4,-4.7 23.2,-7.9 35.4,-9.5 -3.5,0.5 -7.1,1 -10.6,1.4 12.6,-1.6 25.2,-1.5 37.7,0.1 -3.5,-0.5 -7.1,-1 -10.6,-1.4 12,1.7 23.7,4.9 34.9,9.6 -3.2,-1.3 -6.4,-2.7 -9.6,-4 10.9,4.7 21.2,10.7 30.6,17.8 -2.7,-2.1 -5.4,-4.2 -8.1,-6.3 9.7,7.5 18.3,16.1 25.8,25.8 -2.1,-2.7 -4.2,-5.4 -6.3,-8.1 7.2,9.5 13.2,19.7 17.8,30.6 -1.3,-3.2 -2.7,-6.4 -4,-9.6 4.7,11.2 7.9,22.9 9.6,34.9 -0.5,-3.5 -1,-7.1 -1.4,-10.6 0.9,6.6 1.3,13 1.3,19.5 0.1,10.3 4.4,21 11.7,28.3 6.9,6.9 18.3,12.2 28.3,11.7 21.6,-1 40.1,-17.6 40,-40 -0.2,-34.8 -10.2,-70.5 -30,-99.3 -9.7,-14.1 -20.8,-27.4 -34.2,-38.1 -7.8,-6.2 -15.7,-12.3 -24.3,-17.4 -8.7,-5.1 -17.9,-9.1 -27.3,-12.9 -33.2,-13.5 -71.2,-14.9 -105.8,-6.9 -35.6,8.2 -70.2,29 -93.5,57.1 -14.7,17.7 -25.3,35.9 -33.5,57.4 -7.5,19.7 -10.8,41.8 -10.4,62.8 0.7,34.6 11.2,70.3 31.5,98.6 10.1,14.1 21.1,26.9 34.8,37.6 7.9,6.2 15.8,12.2 24.5,17.1 8.8,4.9 18.1,8.9 27.5,12.5 32.8,12.8 70.6,13.8 104.6,5.6 33,-7.9 64.7,-26.5 87.6,-51.5 23.2,-25.2 40.4,-57.2 45.6,-91.3 1.6,-10.4 2.9,-20.8 3,-31.4 0.1,-20.9 -18.5,-41 -40,-40 -21.8,1.1 -40,17.7 -40.1,40.1 z"
         inkscape:connector-curvature="0" /></g></g><g
     id="g30"><g
       id="g28"><path
         id="path26"
         d="m 793.9,655.5 c -63.8,0.4 -123.6,34.9 -155.6,90.2 18.2,-4.8 36.5,-9.6 54.7,-14.4 -10.6,-6.1 -21.3,-12.1 -31.9,-18.2 -25.7,-14.7 -51.4,-29.3 -77.1,-44 -30.9,-17.7 -61.9,-35.4 -92.8,-53 -26.9,-15.4 -53.8,-30.7 -80.6,-46.1 -13,-7.4 -25.9,-15.2 -39,-22.3 -0.2,-0.1 -0.4,-0.2 -0.6,-0.3 4.8,18.2 9.6,36.5 14.4,54.7 32.1,-56 31.9,-126.3 -1,-181.9 -4.8,18.2 -9.6,36.5 -14.4,54.7 10.6,-6.1 21.3,-12.1 31.9,-18.2 25.7,-14.7 51.4,-29.3 77.1,-44 31,-17.7 61.9,-35.4 92.9,-53 26.9,-15.4 53.8,-30.7 80.6,-46.1 13,-7.4 26.2,-14.6 39,-22.3 0.2,-0.1 0.4,-0.2 0.6,-0.3 -18.2,-4.8 -36.5,-9.6 -54.7,-14.4 31.5,56.3 92.2,91.4 156.5,91.9 20.9,0.1 41,-18.5 40,-40 -1,-21.8 -17.6,-39.9 -40,-40 -6.1,0 -12.2,-0.4 -18.2,-1.2 3.5,0.5 7.1,1 10.6,1.4 -12.2,-1.7 -24.1,-4.9 -35.5,-9.6 3.2,1.3 6.4,2.7 9.6,4 -11.1,-4.7 -21.5,-10.8 -31.1,-18.1 2.7,2.1 5.4,4.2 8.1,6.3 -9.5,-7.4 -17.9,-15.8 -25.3,-25.2 2.1,2.7 4.2,5.4 6.3,8.1 -4.4,-5.7 -8.3,-11.7 -11.9,-18 -10.6,-19 -36.2,-24.9 -54.7,-14.4 -10.6,6.1 -21.3,12.1 -31.9,18.2 -25.7,14.7 -51.4,29.3 -77.1,44 -31,17.7 -61.9,35.4 -92.9,53 -26.9,15.4 -53.8,30.7 -80.6,46.1 -13,7.4 -26.2,14.6 -39,22.3 -0.2,0.1 -0.4,0.2 -0.6,0.3 -18.7,10.7 -25.3,36.2 -14.4,54.7 3.4,5.8 6.4,11.7 9,17.9 -1.3,-3.2 -2.7,-6.4 -4,-9.6 4.5,11.1 7.7,22.6 9.4,34.4 -0.5,-3.5 -1,-7.1 -1.4,-10.6 1.7,12.8 1.7,25.7 0,38.5 0.5,-3.5 1,-7.1 1.4,-10.6 -1.7,11.8 -4.8,23.3 -9.3,34.3 1.3,-3.2 2.7,-6.4 4,-9.6 -2.4,5.6 -5.1,11.1 -8.1,16.4 -10.7,18.6 -4.6,43.9 14.4,54.7 10.6,6.1 21.3,12.1 31.9,18.2 25.7,14.7 51.4,29.3 77.1,44 30.9,17.7 61.9,35.4 92.8,53 26.9,15.4 53.8,30.7 80.6,46.1 13,7.4 25.9,15.1 39,22.3 0.2,0.1 0.4,0.2 0.6,0.3 18.7,10.7 43.8,4.5 54.7,-14.4 3.4,-5.8 7.1,-11.3 11.2,-16.6 -2.1,2.7 -4.2,5.4 -6.3,8.1 7.4,-9.4 15.9,-17.8 25.3,-25.1 -2.7,2.1 -5.4,4.2 -8.1,6.3 9.6,-7.3 20,-13.3 31,-18 -3.2,1.3 -6.4,2.7 -9.6,4 11.4,-4.7 23.2,-7.9 35.4,-9.5 -3.5,0.5 -7.1,1 -10.6,1.4 6,-0.8 12.1,-1.2 18.2,-1.2 10.3,-0.1 21,-4.4 28.3,-11.7 6.9,-6.9 12.2,-18.3 11.7,-28.3 -1,-21.2 -17.6,-39.8 -40,-39.6 z"
         inkscape:connector-curvature="0" /></g></g><text
     id="text32"
     font-weight="bold"
     font-size="5px"
     y="1039"
     x="0"
     style="font-weight:bold;font-size:5px;font-family:'Helvetica Neue', Helvetica, Arial-Unicode, Arial, Sans-serif;fill:#000000">Created by shashank singh</text>
<text
     id="text34"
     font-weight="bold"
     font-size="5px"
     y="1044"
     x="0"
     style="font-weight:bold;font-size:5px;font-family:'Helvetica Neue', Helvetica, Arial-Unicode, Arial, Sans-serif;fill:#000000">from the Noun Project</text>
</g>
<path
   style="opacity:1;fill:#ffffff;fill-opacity:1;fill-rule:evenodd;stroke:none;stroke-width:48.62394333;stroke-miterlimit:4;stroke-dasharray:none;stroke-dashoffset:0;stroke-opacity:1"
   d="M 789.3247,1160.1729 C 697.54598,1142.4618 629.77535,1046.7199 646.67352,958.64461 l 4.94276,-25.76217 -122.81796,-70.20822 c -67.54989,-38.6145 -126.98369,-71.80675 -132.07512,-73.76054 -6.02325,-2.31132 -16.83713,2.4512 -30.95525,13.63292 C 261.99119,884.73936 108.35753,825.17641 83.297291,693.03433 72.765862,637.50232 90.914811,583.50838 135.02597,539.1392 197.40089,476.39942 297.5935,470.83071 366.57959,526.26945 l 20.8898,16.78749 131.41785,-75.42118 c 88.00777,-50.50798 130.74211,-77.94243 129.37207,-83.0539 -1.1252,-4.19799 -2.14215,-24.82991 -2.2599,-45.84871 -0.86129,-153.74493 189.81125,-231.87165 299.12043,-122.56246 72.81036,72.81034 69.44116,184.56075 -7.68976,255.05404 -63.93041,58.42879 -160.52708,61.22626 -229.44185,6.64473 -11.70294,-9.26889 -22.51736,-16.85251 -24.03205,-16.85251 -2.43487,0 -120.79161,66.96996 -221.38365,125.26584 l -35.86814,20.78659 5.30442,26.8273 c 3.36537,17.02048 3.44942,37.5942 0.22991,56.28097 l -5.07449,29.45364 129.98459,73.70577 129.98458,73.70576 19.55195,-15.64697 c 64.18538,-51.36613 144.14855,-55.40659 210.67715,-10.64531 97.859,65.84081 107.3363,196.13926 20.06758,275.89796 -40.81638,37.3038 -96.12046,53.5563 -148.10538,43.5244 z"
   id="path43"
   inkscape:connector-curvature="0" /></svg>