<?xml version="1.0" encoding="UTF-8" standalone="no"?>
<svg
   xmlns:dc="http://purl.org/dc/elements/1.1/"
   xmlns:cc="http://creativecommons.org/ns#"
   xmlns:rdf="http://www.w3.org/1999/02/22-rdf-syntax-ns#"
   xmlns:svg="http://www.w3.org/2000/svg"
   xmlns="http://www.w3.org/2000/svg"
   xmlns:sodipodi="http://sodipodi.sourceforge.net/DTD/sodipodi-0.dtd"
   xmlns:inkscape="http://www.inkscape.org/namespaces/inkscape"
   viewBox="0 0 78 97.5"
   version="1.1"
   x="0px"
   y="0px"
   id="svg16"
   sodipodi:docname="plus.svg"
   inkscape:version="0.92.3 (2405546, 2018-03-11)">
  <metadata
     id="metadata22">
    <rdf:RDF>
      <cc:Work
         rdf:about="">
        <dc:format>image/svg+xml</dc:format>
        <dc:type
           rdf:resource="http://purl.org/dc/dcmitype/StillImage" />
      </cc:Work>
    </rdf:RDF>
  </metadata>
  <defs
     id="defs20" />
  <sodipodi:namedview
     pagecolor="#ffffff"
     bordercolor="#666666"
     borderopacity="1"
     objecttolerance="10"
     gridtolerance="10"
     guidetolerance="10"
     inkscape:pageopacity="0"
     inkscape:pageshadow="2"
     inkscape:window-width="640"
     inkscape:window-height="480"
     id="namedview18"
     showgrid="false"
     inkscape:zoom="2.4205128"
     inkscape:cx="24.540254"
     inkscape:cy="48.75"
     inkscape:window-x="0"
     inkscape:window-y="0"
     inkscape:window-maximized="0"
     inkscape:current-layer="svg16" />
  <title
     id="title2">+</title>
  <desc
     id="desc4">Created with Sketch.</desc>
  <g
     id="g10"
     transform="matrix(0.98411017,0,0,0.97351695,0.82627121,21.483051)"
     style="fill:none;fill-rule:evenodd;stroke:none;stroke-width:1">
    <g
       transform="translate(-131,-237)"
       id="g8"
       style="fill:#000000">
      <path
         d="m 173.5,273 h 15.09105 c 1.32853,0 2.40895,1.07855 2.40895,2.409 v 2.182 c 0,1.33059 -1.07853,2.409 -2.40895,2.409 H 173.5 v 15.09105 c 0,1.32853 -1.07855,2.40895 -2.409,2.40895 h -2.182 c -1.33059,0 -2.409,-1.07853 -2.409,-2.40895 V 280 H 151.40895 C 150.08041,280 149,278.92145 149,277.591 v -2.182 c 0,-1.33059 1.07853,-2.409 2.40895,-2.409 H 166.5 v -15.09105 c 0,-1.32853 1.07855,-2.40895 2.409,-2.40895 h 2.182 c 1.33059,0 2.409,1.07853 2.409,2.40895 z m -42.5,3 c 0,-21.53911 17.45616,-39 39,-39 21.5391,0 39,17.45616 39,39 0,21.5391 -17.45616,39 -39,39 -21.53911,0 -39,-17.45616 -39,-39 z"
         id="path6"
         inkscape:connector-curvature="0" />
    </g>
  </g>
</svg>
