<?xml version="1.0" encoding="UTF-8" standalone="no"?>
<svg
   xmlns:dc="http://purl.org/dc/elements/1.1/"
   xmlns:cc="http://creativecommons.org/ns#"
   xmlns:rdf="http://www.w3.org/1999/02/22-rdf-syntax-ns#"
   xmlns:svg="http://www.w3.org/2000/svg"
   xmlns="http://www.w3.org/2000/svg"
   xmlns:sodipodi="http://sodipodi.sourceforge.net/DTD/sodipodi-0.dtd"
   xmlns:inkscape="http://www.inkscape.org/namespaces/inkscape"
   version="1.1"
   x="0px"
   y="0px"
   viewBox="0 0 64 80"
   style="enable-background:new 0 0 64 64;"
   xml:space="preserve"
   id="svg12"
   sodipodi:docname="position.svg"
   inkscape:version="0.92.3 (2405546, 2018-03-11)"><metadata
   id="metadata18"><rdf:RDF><cc:Work
       rdf:about=""><dc:format>image/svg+xml</dc:format><dc:type
         rdf:resource="http://purl.org/dc/dcmitype/StillImage" /></cc:Work></rdf:RDF></metadata><defs
   id="defs16" /><sodipodi:namedview
   pagecolor="#ffffff"
   bordercolor="#666666"
   borderopacity="1"
   objecttolerance="10"
   gridtolerance="10"
   guidetolerance="10"
   inkscape:pageopacity="0"
   inkscape:pageshadow="2"
   inkscape:window-width="1920"
   inkscape:window-height="1001"
   id="namedview14"
   showgrid="false"
   inkscape:zoom="2.95"
   inkscape:cx="20.135594"
   inkscape:cy="40"
   inkscape:window-x="-9"
   inkscape:window-y="-9"
   inkscape:window-maximized="1"
   inkscape:current-layer="svg12" /><g
   id="g6"
   transform="matrix(1.4453272,0,0,1.347104,-14.250469,2.2825035)"><path
     d="m 32,6.12 c -10.5,0 -19.03,8.54 -19.03,19.03 0,9.44 15.82,28.88 19.03,32.73 C 35.21,54.03 51.03,34.59 51.03,25.15 51.03,14.66 42.5,6.12 32,6.12 Z m 0,28.63 c -5.29,0 -9.6,-4.31 -9.6,-9.6 0,-5.29 4.31,-9.6 9.6,-9.6 5.29,0 9.6,4.31 9.6,9.6 0,5.29 -4.31,9.6 -9.6,9.6 z"
     id="path2"
     inkscape:connector-curvature="0" /><circle
     cx="32"
     cy="25.15"
     r="7.8499999"
     id="circle4" /></g><text
   x="0"
   y="79"
   font-size="5px"
   font-weight="bold"
   id="text8"
   style="font-weight:bold;font-size:5px;font-family:'Helvetica Neue', Helvetica, Arial-Unicode, Arial, Sans-serif;fill:#000000" />

<text
   x="0"
   y="84"
   font-size="5px"
   font-weight="bold"
   id="text10"
   style="font-weight:bold;font-size:5px;font-family:'Helvetica Neue', Helvetica, Arial-Unicode, Arial, Sans-serif;fill:#000000" />

</svg>