<?xml version="1.0" encoding="UTF-8" standalone="no"?>
<svg
   xmlns:dc="http://purl.org/dc/elements/1.1/"
   xmlns:cc="http://creativecommons.org/ns#"
   xmlns:rdf="http://www.w3.org/1999/02/22-rdf-syntax-ns#"
   xmlns:svg="http://www.w3.org/2000/svg"
   xmlns="http://www.w3.org/2000/svg"
   xmlns:sodipodi="http://sodipodi.sourceforge.net/DTD/sodipodi-0.dtd"
   xmlns:inkscape="http://www.inkscape.org/namespaces/inkscape"
   version="1.1"
   x="0px"
   y="0px"
   viewBox="0 0 32 40"
   enable-background="new 0 0 32 32"
   xml:space="preserve"
   id="svg88"
   sodipodi:docname="what.svg"
   inkscape:version="0.92.3 (2405546, 2018-03-11)"><metadata
     id="metadata94"><rdf:RDF><cc:Work
         rdf:about=""><dc:format>image/svg+xml</dc:format><dc:type
           rdf:resource="http://purl.org/dc/dcmitype/StillImage" /></cc:Work></rdf:RDF></metadata><defs
     id="defs92" /><sodipodi:namedview
     pagecolor="#ffffff"
     bordercolor="#666666"
     borderopacity="1"
     objecttolerance="10"
     gridtolerance="10"
     guidetolerance="10"
     inkscape:pageopacity="0"
     inkscape:pageshadow="2"
     inkscape:window-width="1920"
     inkscape:window-height="1017"
     id="namedview90"
     showgrid="false"
     inkscape:zoom="5.9"
     inkscape:cx="13.033898"
     inkscape:cy="20"
     inkscape:window-x="-8"
     inkscape:window-y="-8"
     inkscape:window-maximized="1"
     inkscape:current-layer="svg88" /><g
     display="none"
     id="g16"><g
       display="inline"
       id="g8"><path
         fill="#000000"
         d="M16,31C7.729,31,1,24.272,1,16S7.729,1,16,1s15,6.729,15,15S24.272,31,16,31z"
         id="path2" /><g
         id="g6"><path
           fill="#000000"
           d="M16,2c7.72,0,14,6.28,14,14s-6.28,14-14,14S2,23.72,2,16S8.28,2,16,2 M16,0C7.163,0,0,7.163,0,16     s7.163,16,16,16s16-7.163,16-16S24.837,0,16,0L16,0z"
           id="path4" /></g></g><circle
       display="inline"
       cx="10.296"
       cy="11.437"
       r="2.785"
       id="circle10" /><circle
       display="inline"
       cx="21.704"
       cy="11.437"
       r="2.785"
       id="circle12" /><line
       display="inline"
       fill="none"
       stroke="#000000"
       stroke-width="2"
       stroke-miterlimit="10"
       x1="9.999"
       y1="19.241"
       x2="22.281"
       y2="21.822"
       id="line14" /></g><g
     display="none"
     id="g34"><circle
       display="inline"
       fill="#000000"
       cx="10.296"
       cy="11.437"
       r="2.785"
       id="circle18" /><circle
       display="inline"
       fill="#000000"
       cx="21.704"
       cy="11.437"
       r="2.785"
       id="circle20" /><rect
       x="9.865"
       y="19.531"
       transform="matrix(0.9786 0.2057 -0.2057 0.9786 4.5676 -2.8806)"
       display="inline"
       fill="#000000"
       width="12.55"
       height="2"
       id="rect22" /><g
       display="inline"
       id="g32"><g
         id="g26"><path
           fill="#000000"
           d="M16,2c7.72,0,14,6.28,14,14s-6.28,14-14,14S2,23.72,2,16S8.28,2,16,2 M16,0C7.163,0,0,7.163,0,16     s7.163,16,16,16s16-7.163,16-16S24.837,0,16,0L16,0z"
           id="path24" /></g><g
         id="g30"><path
           fill="#000000"
           d="M16,1c8.271,0,15,6.729,15,15s-6.729,15-15,15S1,24.271,1,16S7.729,1,16,1 M16,0C7.163,0,0,7.163,0,16     s7.163,16,16,16s16-7.163,16-16S24.837,0,16,0L16,0z"
           id="path28" /></g></g></g><g
     display="none"
     id="g38"><rect
       x="-68.328"
       y="-50.344"
       display="inline"
       fill="#000000"
       width="445.333"
       height="207"
       id="rect36" /></g><g
     display="none"
     id="g64"><g
       display="inline"
       id="g50"><g
         id="g42"><path
           fill="#000000"
           d="M16,31C7.729,31,1,24.272,1,16S7.729,1,16,1s15,6.729,15,15S24.272,31,16,31z"
           id="path40" /></g><g
         id="g48"><g
           id="g46"><path
             fill="#000000"
             d="M16,2c7.72,0,14,6.28,14,14s-6.28,14-14,14S2,23.72,2,16S8.28,2,16,2 M16,0C7.163,0,0,7.163,0,16      s7.163,16,16,16s16-7.163,16-16S24.837,0,16,0L16,0z"
             id="path44" /></g></g></g><g
       display="inline"
       id="g54"><circle
         cx="10.296"
         cy="11.437"
         r="2.785"
         id="circle52" /></g><g
       display="inline"
       id="g58"><circle
         cx="21.704"
         cy="11.437"
         r="2.785"
         id="circle56" /></g><g
       display="inline"
       id="g62"><rect
         x="9.865"
         y="19.531"
         transform="matrix(0.9786 0.2057 -0.2057 0.9786 4.5676 -2.8806)"
         width="12.55"
         height="2"
         id="rect60" /></g></g><g
     id="g76"
     transform="translate(0.16949153,3.559322)"><circle
       cx="10.296"
       cy="11.437"
       r="2.7850001"
       id="circle66"
       style="fill:#000000" /><circle
       cx="21.704"
       cy="11.437"
       r="2.7850001"
       id="circle68"
       style="fill:#000000" /><rect
       x="9.8649998"
       y="19.531"
       transform="matrix(0.9786,0.2057,-0.2057,0.9786,4.5676,-2.8806)"
       width="12.55"
       height="2"
       id="rect70"
       style="fill:#000000" /><g
       id="g74"><path
         d="M 16,2 C 23.72,2 30,8.28 30,16 30,23.72 23.72,30 16,30 8.28,30 2,23.72 2,16 2,8.28 8.28,2 16,2 M 16,0 C 7.163,0 0,7.163 0,16 0,24.837 7.163,32 16,32 24.837,32 32,24.837 32,16 32,7.163 24.837,0 16,0 Z"
         id="path72"
         inkscape:connector-curvature="0"
         style="fill:#000000" /></g></g><g
     display="none"
     id="g82"><g
       display="inline"
       id="g80"><path
         fill="#000000"
         d="M16,0C7.163,0,0,7.163,0,16c0,8.837,7.163,16,16,16s16-7.163,16-16C32,7.163,24.837,0,16,0z M7.511,11.437    c0-1.538,1.247-2.785,2.785-2.785c1.538,0,2.785,1.247,2.785,2.785c0,1.538-1.247,2.785-2.785,2.785    C8.758,14.222,7.511,12.975,7.511,11.437z M22.074,22.8L9.793,20.219l0.412-1.957l12.281,2.581L22.074,22.8z M21.704,14.222    c-1.538,0-2.785-1.247-2.785-2.785c0-1.538,1.247-2.785,2.785-2.785c1.538,0,2.785,1.247,2.785,2.785    C24.489,12.975,23.242,14.222,21.704,14.222z"
         id="path78" /></g></g></svg>